<?xml version="1.0" encoding="UTF-8" standalone="no"?>
<!-- Created with Inkscape (http://www.inkscape.org/) -->

<svg
   width="85.572006mm"
   height="49.854046mm"
   viewBox="0 0 85.572006 49.854046"
   version="1.1"
   id="svg1"
   inkscape:version="1.3.2 (091e20ef0f, 2023-11-25, custom)"
   sodipodi:docname="astrid_logo_white_nodots.svg"
   xmlns:inkscape="http://www.inkscape.org/namespaces/inkscape"
   xmlns:sodipodi="http://sodipodi.sourceforge.net/DTD/sodipodi-0.dtd"
   xmlns="http://www.w3.org/2000/svg"
   xmlns:svg="http://www.w3.org/2000/svg">
  <sodipodi:namedview
     id="namedview1"
     pagecolor="#ffffff"
     bordercolor="#000000"
     borderopacity="0.25"
     inkscape:showpageshadow="2"
     inkscape:pageopacity="0.0"
     inkscape:pagecheckerboard="0"
     inkscape:deskcolor="#d1d1d1"
     inkscape:document-units="mm"
     inkscape:zoom="1.4467416"
     inkscape:cx="157.59553"
     inkscape:cy="101.95325"
     inkscape:window-width="1278"
     inkscape:window-height="770"
     inkscape:window-x="0"
     inkscape:window-y="0"
     inkscape:window-maximized="0"
     inkscape:current-layer="layer1"
     showguides="false">
    <sodipodi:guide
       position="30.313359,27.238133"
       orientation="0,-1"
       id="guide19"
       inkscape:locked="false" />
    <sodipodi:guide
       position="35.256726,22.976379"
       orientation="1,0"
       id="guide46"
       inkscape:locked="false" />
    <sodipodi:guide
       position="82.514307,22.976379"
       orientation="1,0"
       id="guide47"
       inkscape:locked="false" />
    <sodipodi:guide
       position="39.517965,18.714629"
       orientation="0,-1"
       id="guide48"
       inkscape:locked="false" />
    <sodipodi:guide
       position="35.256726,18.714629"
       orientation="-0.70710678,-0.70710678"
       id="guide49"
       inkscape:locked="false" />
    <sodipodi:guide
       position="35.256726,0"
       orientation="0.70710678,-0.70710678"
       id="guide50"
       inkscape:locked="false" />
    <sodipodi:guide
       position="44.614041,9.3573144"
       orientation="0,-1"
       id="guide51"
       inkscape:locked="false" />
  </sodipodi:namedview>
  <defs
     id="defs1" />
  <g
     inkscape:label="Layer 1"
     inkscape:groupmode="layer"
     id="layer1"
     transform="translate(-41.278654,-74.618463)">
    <g
       id="g19"
       style="fill:#ffffff;fill-opacity:1">
      <path
         id="path11"
         style="font-weight:900;font-size:27.2589px;line-height:1;font-family:'Neuzeit Grotesk';-inkscape-font-specification:'Neuzeit Grotesk Heavy';text-align:justify;letter-spacing:0px;stroke-width:1.14187;stroke-linecap:round;stroke-linejoin:round;fill:#ffffff;fill-opacity:1"
         d="m 107.8513,75.646029 c -0.65421,0 -1.19021,0.208866 -1.60817,0.626835 -0.41798,0.417969 -0.62735,0.944742 -0.62735,1.580782 0,0.636041 0.20937,1.163329 0.62735,1.581299 0.41796,0.417969 0.94474,0.626835 1.58078,0.626835 0.63605,0 1.16333,-0.208866 1.5813,-0.626835 0.41796,-0.41797 0.62683,-0.936043 0.62683,-1.553911 0,-0.654212 -0.20887,-1.190201 -0.62683,-1.60817 -0.3998,-0.417969 -0.91787,-0.626835 -1.55391,-0.626835 z m -44.677378,0.327111 -5.99705,18.18132 h 4.715991 l 0.790133,-2.616895 h 6.433199 l 0.790649,2.616895 h 4.8519 L 68.789083,75.97314 Z m 59.533318,0 v 6.705534 c -1.14488,-1.090355 -2.4805,-1.635559 -4.00699,-1.635559 -1.59919,0 -3.07099,0.590768 -4.41575,1.771985 -1.38112,1.272081 -2.07171,2.998302 -2.07171,5.179012 0,1.998984 0.58155,3.607466 1.7446,4.825029 1.16304,1.217563 2.71674,1.826245 4.66121,1.826245 0.96315,0 1.83547,-0.181735 2.61689,-0.545187 0.50884,-0.254416 0.99926,-0.709011 1.47175,-1.363224 v 1.417485 h 4.14342 V 75.97314 Z m -34.237188,2.371432 v 3.107304 h -1.281059 v 3.434932 h 1.281059 v 6.623885 c 0,0.944975 0.181735,1.62635 0.545186,2.04432 0.381625,0.399796 0.999523,0.599447 1.853634,0.599447 h 3.189469 v -3.434416 h -0.436149 c -0.672385,0 -1.008724,-0.272861 -1.008724,-0.818038 v -5.015198 h 1.444873 v -3.434932 h -1.444873 v -3.107304 z m -7.686869,2.698543 c -1.526497,0 -2.762293,0.381385 -3.707267,1.144633 -0.926802,0.763249 -1.390097,1.772264 -1.390097,3.026172 0,0.999492 0.308691,1.835472 0.926559,2.507857 0.63604,0.654214 1.644539,1.198901 3.025655,1.635043 0.835939,0.272589 1.390359,0.509103 1.662948,0.709 0.290761,0.181726 0.436149,0.417722 0.436149,0.708484 0,0.254416 -0.09061,0.472498 -0.272335,0.654224 -0.181726,0.163554 -0.409023,0.245463 -0.681612,0.245463 -0.345279,0 -0.608924,-0.09061 -0.79065,-0.272335 -0.163553,-0.199898 -0.290508,-0.536236 -0.381372,-1.008724 h -3.925342 c 0.03635,1.326599 0.508856,2.371444 1.417485,3.134693 0.908629,0.745075 2.13521,1.117761 3.679879,1.117761 1.54467,0 2.780465,-0.390601 3.707267,-1.172022 0.944974,-0.781421 1.417485,-1.817567 1.417485,-3.10782 0,-1.108527 -0.36347,-1.989553 -1.090373,-2.643767 -0.726903,-0.654212 -1.971916,-1.235764 -3.734656,-1.744596 -0.308934,-0.05452 -0.572578,-0.136427 -0.790649,-0.245463 -0.581523,-0.290761 -0.781173,-0.672663 -0.599447,-1.14515 0.145381,-0.399797 0.454071,-0.590231 0.926558,-0.572058 0.345279,0 0.627356,0.09982 0.845427,0.299723 0.236243,0.181726 0.353983,0.417723 0.353983,0.708484 v 0.245463 h 3.843694 c -0.01817,-1.326598 -0.463552,-2.362228 -1.335836,-3.107304 -0.854111,-0.745075 -2.035129,-1.117761 -3.543453,-1.117761 z m 22.870437,0 c -0.69056,0 -1.29976,0.181735 -1.82676,0.545187 -0.41797,0.290761 -0.78144,0.845181 -1.09037,1.662947 V 81.533525 H 96.59307 V 94.15446 h 4.14342 v -5.942273 c 0,-0.944974 0.13669,-1.59922 0.40927,-1.962671 0.45432,-0.672386 1.17204,-1.008724 2.15336,-1.008724 0.0363,0 0.0819,0.0092 0.13643,0.02739 0.0727,0 0.1633,0.0092 0.27233,0.02739 h 0.3545 v -4.252454 z m -37.753766,0.136426 2.125968,6.787183 H 63.773368 Z M 105.7522,81.533525 V 94.15446 h 4.14342 V 81.533525 Z m 13.95677,2.944006 c 0.85411,0 1.56262,0.336339 2.12597,1.008724 0.58153,0.672386 0.8723,1.508365 0.8723,2.507857 0,0.926802 -0.29077,1.726435 -0.8723,2.39882 -0.58152,0.654213 -1.29003,0.981336 -2.12597,0.981336 -0.87228,0 -1.60844,-0.317907 -2.20813,-0.953947 -0.58153,-0.654213 -0.8723,-1.463062 -0.8723,-2.426209 0,-1.017664 0.29077,-1.853644 0.8723,-2.507857 0.58152,-0.672385 1.31767,-1.008724 2.20813,-1.008724 z" />
      <path
         id="path1"
         style="color:#000000;fill:#ffffff;fill-opacity:1;stroke:none;stroke-linejoin:round;-inkscape-stroke:none"
         d="m 57.102974,74.619218 c -1.047698,0.0099 -1.878367,0.113894 -2.290816,0.176733 l 0.757577,4.927865 c 1.311326,-0.192878 2.680137,-0.149891 4.049882,0.164848 l 0.0083,-0.03721 1.067635,-4.843632 c -1.280139,-0.314124 -2.544847,-0.39846 -3.592546,-0.388607 z m -7.831563,2.114083 c -1.717691,0.985302 -3.253676,2.286744 -4.509802,3.850928 l 3.91604,3.0887 c 0.850666,-1.060968 1.886482,-1.94333 3.045809,-2.612244 z m -7.275525,9.050093 c -0.472171,1.512878 -0.842922,3.505642 -0.676961,5.833236 l 4.976957,-0.323494 c -0.118452,-1.707316 0.177534,-3.042057 0.478007,-4.041614 z m 25.06307,9.337415 c -2.428583,5.210861 -8.417047,7.634091 -13.785205,5.576401 -2.718111,-1.041879 -4.782769,-3.046317 -5.944857,-5.483384 l -4.514453,2.094446 c 1.696273,3.585328 4.715929,6.541138 8.670272,8.056868 1.050006,0.40249 2.119255,0.68151 3.191536,0.85163 v 6.72827 h -6.5257 v 5.00022 h 6.5257 v 6.52725 h 4.999695 v -6.52725 h 6.527767 v -5.00022 h -6.527767 v -6.73344 c 5.0552,-0.8146 9.617019,-4.04428 11.916069,-8.977225 z"
         sodipodi:nodetypes="scccccssccccccccccccccccccccccccccccc" />
    </g>
  </g>
</svg>
